<?xml version="1.0" standalone="no"?><!DOCTYPE svg PUBLIC "-//W3C//DTD SVG 1.1//EN" "http://www.w3.org/Graphics/SVG/1.1/DTD/svg11.dtd"><svg t="1666626088790" class="icon" viewBox="0 0 1024 1024" version="1.1" xmlns="http://www.w3.org/2000/svg" p-id="1997" xmlns:xlink="http://www.w3.org/1999/xlink" width="200" height="200"><path d="M128 256c0-33.728 25.664-61.376 58.208-63.84L470.816 192c19.296 0 37.44 8.992 49.28 24.256L567.296 288h265.824C867.84 288 896 316.64 896 352c0 3.296-32.64 146.848-97.856 430.656A63.136 63.136 0 0 1 736.928 832H190.88C156.16 832 128 803.36 128 768V256z m705.12 96H303.616L207.424 768h529.504l96.192-416z m-642.24 207.936l51.52-222.592A63.136 63.136 0 0 1 303.584 288h188.096l-20.896-32H190.88v303.936z" p-id="1998"></path></svg>